<mxfile host="app.diagrams.net" modified="2021-01-24T05:37:07.023Z" agent="5.0 (Windows NT 10.0; Win64; x64) AppleWebKit/537.36 (KHTML, like Gecko) Chrome/87.0.4280.141 Safari/537.36" etag="BxiUoSv6SfA7JDq9pjsD" version="14.2.6" type="github">
  <diagram id="QK0jPorxMnugWh7hyc6T" name="Page-1">
    <mxGraphModel dx="1967" dy="670" grid="1" gridSize="10" guides="1" tooltips="1" connect="1" arrows="1" fold="1" page="1" pageScale="1" pageWidth="850" pageHeight="1100" math="0" shadow="0">
      <root>
        <mxCell id="0" />
        <mxCell id="1" parent="0" />
        <mxCell id="A0bPd90LtmdEjfv_5qgH-13" value="" style="edgeStyle=orthogonalEdgeStyle;rounded=1;orthogonalLoop=1;jettySize=auto;html=1;strokeWidth=5;" edge="1" parent="1" source="A0bPd90LtmdEjfv_5qgH-1" target="A0bPd90LtmdEjfv_5qgH-3">
          <mxGeometry relative="1" as="geometry" />
        </mxCell>
        <mxCell id="A0bPd90LtmdEjfv_5qgH-1" value="" style="rounded=0;whiteSpace=wrap;html=1;" vertex="1" parent="1">
          <mxGeometry y="140" width="120" height="60" as="geometry" />
        </mxCell>
        <mxCell id="A0bPd90LtmdEjfv_5qgH-14" value="" style="edgeStyle=orthogonalEdgeStyle;rounded=0;orthogonalLoop=1;jettySize=auto;html=1;strokeWidth=5;" edge="1" parent="1" source="A0bPd90LtmdEjfv_5qgH-3" target="A0bPd90LtmdEjfv_5qgH-4">
          <mxGeometry relative="1" as="geometry" />
        </mxCell>
        <mxCell id="A0bPd90LtmdEjfv_5qgH-21" style="edgeStyle=orthogonalEdgeStyle;rounded=0;orthogonalLoop=1;jettySize=auto;html=1;entryX=0;entryY=0.5;entryDx=0;entryDy=0;jumpSize=5;strokeWidth=6;" edge="1" parent="1" source="A0bPd90LtmdEjfv_5qgH-3" target="A0bPd90LtmdEjfv_5qgH-10">
          <mxGeometry relative="1" as="geometry">
            <mxPoint x="430" y="420" as="targetPoint" />
            <Array as="points">
              <mxPoint x="260" y="325" />
            </Array>
          </mxGeometry>
        </mxCell>
        <mxCell id="A0bPd90LtmdEjfv_5qgH-3" value="HAND SANITIZING" style="rounded=0;whiteSpace=wrap;html=1;" vertex="1" parent="1">
          <mxGeometry x="200" y="140" width="120" height="60" as="geometry" />
        </mxCell>
        <mxCell id="A0bPd90LtmdEjfv_5qgH-15" value="" style="edgeStyle=orthogonalEdgeStyle;rounded=0;orthogonalLoop=1;jettySize=auto;html=1;jumpSize=5;strokeWidth=6;" edge="1" parent="1" source="A0bPd90LtmdEjfv_5qgH-4" target="A0bPd90LtmdEjfv_5qgH-5">
          <mxGeometry relative="1" as="geometry" />
        </mxCell>
        <mxCell id="A0bPd90LtmdEjfv_5qgH-17" value="" style="edgeStyle=orthogonalEdgeStyle;rounded=0;orthogonalLoop=1;jettySize=auto;html=1;jumpSize=5;strokeWidth=6;" edge="1" parent="1" source="A0bPd90LtmdEjfv_5qgH-4" target="A0bPd90LtmdEjfv_5qgH-10">
          <mxGeometry relative="1" as="geometry" />
        </mxCell>
        <mxCell id="A0bPd90LtmdEjfv_5qgH-4" value="TEMPERATURE SENSING USING&amp;nbsp;&lt;br&gt;IR SENSOR" style="rounded=0;whiteSpace=wrap;html=1;" vertex="1" parent="1">
          <mxGeometry x="400" y="140" width="120" height="60" as="geometry" />
        </mxCell>
        <mxCell id="A0bPd90LtmdEjfv_5qgH-16" value="" style="edgeStyle=orthogonalEdgeStyle;rounded=0;orthogonalLoop=1;jettySize=auto;html=1;jumpSize=5;strokeWidth=6;" edge="1" parent="1" source="A0bPd90LtmdEjfv_5qgH-5" target="A0bPd90LtmdEjfv_5qgH-9">
          <mxGeometry relative="1" as="geometry" />
        </mxCell>
        <mxCell id="A0bPd90LtmdEjfv_5qgH-20" style="edgeStyle=orthogonalEdgeStyle;rounded=0;orthogonalLoop=1;jettySize=auto;html=1;jumpSize=5;strokeWidth=6;" edge="1" parent="1" source="A0bPd90LtmdEjfv_5qgH-5" target="A0bPd90LtmdEjfv_5qgH-10">
          <mxGeometry relative="1" as="geometry">
            <mxPoint x="740" y="380" as="targetPoint" />
            <Array as="points">
              <mxPoint x="660" y="325" />
            </Array>
          </mxGeometry>
        </mxCell>
        <mxCell id="A0bPd90LtmdEjfv_5qgH-5" value="SpO2 SENSOR" style="rounded=0;whiteSpace=wrap;html=1;" vertex="1" parent="1">
          <mxGeometry x="600" y="140" width="120" height="60" as="geometry" />
        </mxCell>
        <mxCell id="A0bPd90LtmdEjfv_5qgH-9" value="UV SANITIZATION AFTER PERSON&lt;br&gt;EXITS" style="rounded=0;whiteSpace=wrap;html=1;" vertex="1" parent="1">
          <mxGeometry x="800" y="140" width="120" height="60" as="geometry" />
        </mxCell>
        <mxCell id="A0bPd90LtmdEjfv_5qgH-10" value="DATABASE" style="rounded=0;whiteSpace=wrap;html=1;" vertex="1" parent="1">
          <mxGeometry x="380" y="290" width="160" height="70" as="geometry" />
        </mxCell>
        <mxCell id="A0bPd90LtmdEjfv_5qgH-22" value="QR CODE&lt;br&gt;SCANNING" style="text;html=1;strokeColor=none;align=center;verticalAlign=middle;whiteSpace=wrap;rounded=0;strokeWidth=5;gradientColor=#ffffff;" vertex="1" parent="1">
          <mxGeometry y="140" width="120" height="60" as="geometry" />
        </mxCell>
        <mxCell id="A0bPd90LtmdEjfv_5qgH-23" value="" style="edgeStyle=orthogonalEdgeStyle;rounded=1;orthogonalLoop=1;jettySize=auto;html=1;strokeWidth=5;" edge="1" parent="1">
          <mxGeometry relative="1" as="geometry">
            <mxPoint x="120" y="169.5" as="sourcePoint" />
            <mxPoint x="200" y="169.5" as="targetPoint" />
          </mxGeometry>
        </mxCell>
      </root>
    </mxGraphModel>
  </diagram>
</mxfile>
